<svg width="1988" height="559" viewBox="0 0 1988 559" fill="none" xmlns="http://www.w3.org/2000/svg">
<path d="M236.489 28.6665H538.659L316.504 357.945H14.334L236.489 28.6665Z" fill="white"/>
<path d="M249.731 388.465L163.686 516.003H480.189L702.344 186.725H468.745L332.635 388.465H249.731Z" fill="white"/>
<path d="M948.501 401.329C916.542 401.329 891.462 392.34 873.263 374.363C855.285 356.386 846.297 330.418 846.297 296.461V164.96H889.575V294.796C889.575 318.766 894.68 336.189 904.89 347.064C915.321 357.939 929.969 363.377 948.834 363.377C967.699 363.377 982.237 357.939 992.446 347.064C1002.66 336.189 1007.76 318.766 1007.76 294.796V164.96H1050.37V296.461C1050.37 330.418 1041.27 356.386 1023.07 374.363C1005.1 392.34 980.239 401.329 948.501 401.329ZM1173.91 400.33C1154.37 400.33 1139.28 395.337 1128.63 385.349C1117.98 375.14 1112.65 360.159 1112.65 340.406V180.94H1154.26V339.407C1154.26 347.841 1156.37 354.388 1160.59 359.049C1165.03 363.71 1171.13 366.04 1178.9 366.04C1188.22 366.04 1195.99 363.599 1202.2 358.716L1213.86 388.345C1208.97 392.34 1202.98 395.337 1195.88 397.334C1188.78 399.332 1181.45 400.33 1173.91 400.33ZM1083.35 254.847V221.555H1201.87V254.847H1083.35ZM1322.14 400.33C1303.94 400.33 1287.73 396.446 1273.53 388.678C1259.33 380.688 1248.12 369.813 1239.91 356.053C1231.69 342.292 1227.59 326.645 1227.59 309.112C1227.59 291.356 1231.69 275.709 1239.91 262.171C1248.12 248.41 1259.33 237.646 1273.53 229.878C1287.73 222.11 1303.94 218.226 1322.14 218.226C1340.56 218.226 1356.87 222.11 1371.07 229.878C1385.5 237.646 1396.71 248.299 1404.7 261.838C1412.91 275.376 1417.02 291.134 1417.02 309.112C1417.02 326.645 1412.91 342.292 1404.7 356.053C1396.71 369.813 1385.5 380.688 1371.07 388.678C1356.87 396.446 1340.56 400.33 1322.14 400.33ZM1322.14 364.709C1332.35 364.709 1341.44 362.489 1349.43 358.05C1357.42 353.611 1363.64 347.175 1368.08 338.741C1372.74 330.307 1375.07 320.431 1375.07 309.112C1375.07 297.571 1372.74 287.694 1368.08 279.482C1363.64 271.048 1357.42 264.612 1349.43 260.173C1341.44 255.734 1332.46 253.515 1322.47 253.515C1312.26 253.515 1303.16 255.734 1295.17 260.173C1287.4 264.612 1281.19 271.048 1276.53 279.482C1271.87 287.694 1269.54 297.571 1269.54 309.112C1269.54 320.431 1271.87 330.307 1276.53 338.741C1281.19 347.175 1287.4 353.611 1295.17 358.05C1303.16 362.489 1312.15 364.709 1322.14 364.709ZM1681.19 218.226C1695.4 218.226 1707.94 221 1718.81 226.549C1729.91 232.097 1738.57 240.642 1744.78 252.183C1751 263.502 1754.1 278.151 1754.1 296.128V398H1712.49V301.455C1712.49 285.697 1709.05 273.934 1702.17 266.166C1695.29 258.398 1685.41 254.514 1672.54 254.514C1663.44 254.514 1655.34 256.511 1648.24 260.506C1641.36 264.501 1635.92 270.383 1631.92 278.151C1628.15 285.919 1626.26 295.795 1626.26 307.78V398H1584.65V301.455C1584.65 285.697 1581.21 273.934 1574.33 266.166C1567.45 258.398 1557.57 254.514 1544.7 254.514C1535.6 254.514 1527.5 256.511 1520.4 260.506C1513.52 264.501 1508.08 270.383 1504.08 278.151C1500.31 285.919 1498.42 295.795 1498.42 307.78V398H1456.81V220.223H1496.43V267.497L1489.44 253.515C1495.43 241.974 1504.08 233.207 1515.4 227.215C1526.94 221.222 1540.04 218.226 1554.69 218.226C1571.33 218.226 1585.76 222.332 1597.97 230.544C1610.39 238.756 1618.61 251.185 1622.6 267.83L1606.29 262.171C1612.06 248.854 1621.6 238.201 1634.92 230.211C1648.24 222.221 1663.66 218.226 1681.19 218.226ZM1891.17 400.33C1871.41 400.33 1854.1 396.446 1839.23 388.678C1824.58 380.688 1813.15 369.813 1804.94 356.053C1796.95 342.292 1792.96 326.645 1792.96 309.112C1792.96 291.356 1796.84 275.709 1804.61 262.171C1812.6 248.41 1823.48 237.646 1837.24 229.878C1851.22 222.11 1867.09 218.226 1884.84 218.226C1902.15 218.226 1917.58 221.999 1931.12 229.545C1944.66 237.091 1955.31 247.744 1963.08 261.505C1970.85 275.265 1974.73 291.467 1974.73 310.11C1974.73 311.886 1974.62 313.884 1974.4 316.103C1974.4 318.322 1974.29 320.431 1974.06 322.428H1825.92V294.796H1952.09L1935.78 303.452C1936 293.243 1933.89 284.254 1929.45 276.486C1925.01 268.718 1918.91 262.615 1911.14 258.176C1903.6 253.737 1894.83 251.517 1884.84 251.517C1874.63 251.517 1865.64 253.737 1857.88 258.176C1850.33 262.615 1844.34 268.829 1839.9 276.819C1835.68 284.587 1833.57 293.798 1833.57 304.451V311.109C1833.57 321.763 1836.01 331.195 1840.9 339.407C1845.78 347.619 1852.66 353.944 1861.54 358.383C1870.42 362.822 1880.63 365.041 1892.17 365.041C1902.15 365.041 1911.14 363.488 1919.13 360.381C1927.12 357.273 1934.22 352.391 1940.44 345.732L1962.74 371.367C1954.75 380.688 1944.66 387.902 1932.45 393.006C1920.46 397.889 1906.7 400.33 1891.17 400.33Z" fill="white"/>
</svg>
