<svg width="693" height="287" viewBox="0 0 693 287" fill="none" xmlns="http://www.w3.org/2000/svg">
<path d="M598.146 124.53C586.447 127.23 555.549 128.73 555.549 128.73L551.75 140.929C551.75 140.929 567.049 139.629 578.248 140.729C578.248 140.729 581.847 140.429 582.247 144.728C582.447 149.128 581.947 153.728 581.947 153.728C581.947 153.728 581.647 156.427 577.948 157.127C573.648 157.827 544.65 159.127 544.65 159.127L539.951 174.926C539.951 174.926 538.251 178.526 542.15 177.526C545.75 176.526 576.148 170.726 580.148 171.526C584.347 172.526 589.147 178.326 587.747 183.525C586.147 189.825 555.749 209.223 537.351 207.923C537.351 207.923 527.652 208.523 519.552 195.424C511.753 182.925 522.252 159.427 522.252 159.427C522.252 159.427 517.552 148.428 521.052 144.428C521.052 144.428 523.052 142.728 529.051 142.229L536.551 126.83C536.551 126.83 528.052 127.33 523.052 121.13C518.452 115.131 518.052 112.531 521.652 110.931C525.452 108.931 560.649 102.632 584.847 103.432C584.847 103.432 593.347 102.432 600.846 117.13C600.846 117.13 604.246 123.13 598.246 124.53M506.953 183.725C503.953 191.025 495.654 198.724 485.655 194.025C475.456 189.225 459.357 156.427 459.357 156.427C459.357 156.427 453.357 144.228 452.157 144.628C452.157 144.628 450.857 142.229 450.158 155.627C449.158 168.926 450.358 194.824 444.858 198.924C439.858 202.924 433.859 201.224 430.459 196.524C427.659 191.825 426.459 180.526 428.059 160.827C429.859 141.129 434.359 120.13 440.058 113.631C446.058 107.031 450.857 111.831 452.657 113.631C452.657 113.631 460.357 120.63 473.356 141.329L475.556 145.128C475.556 145.128 487.355 164.827 488.555 164.727C488.555 164.727 489.555 165.727 490.354 164.927C491.554 164.627 491.154 158.227 491.154 158.227C491.154 158.227 488.955 136.929 477.955 100.932C477.955 100.932 476.356 96.332 477.455 91.9324C478.455 87.9327 482.755 89.9325 482.755 89.9325C482.755 89.9325 499.354 97.9319 507.453 124.93C515.453 151.928 510.053 176.426 507.053 183.725M425.559 114.431C423.96 117.23 423.26 121.13 416.36 122.23C416.36 122.23 349.365 126.93 346.066 131.629C346.066 131.629 343.866 134.429 347.465 135.129C351.265 135.929 366.464 137.929 373.663 138.329C381.463 138.329 407.661 138.529 417.26 150.328C417.26 150.328 422.76 155.927 422.56 168.626C422.36 181.626 420.06 186.225 414.96 190.925C409.661 195.324 364.264 215.723 334.966 184.525C334.966 184.525 321.567 169.526 339.666 158.127C339.666 158.127 352.665 150.128 385.962 159.427C385.962 159.427 395.962 163.027 395.562 166.727C394.962 170.726 387.262 174.726 376.063 174.526C365.264 174.226 357.265 169.026 358.865 169.926C360.364 170.426 347.165 163.527 343.066 168.227C339.066 172.626 340.066 175.226 344.066 177.926C354.065 183.725 393.362 181.626 405.061 168.527C405.061 168.527 409.761 163.227 402.661 158.927C395.662 154.928 375.263 152.428 367.364 152.128C359.864 151.728 331.767 152.128 327.567 144.828C327.567 144.828 323.567 139.629 327.967 125.43C332.567 110.431 365.264 104.631 379.463 103.432C379.463 103.432 418.46 101.832 425.759 109.831C425.759 109.831 426.759 111.631 425.559 114.331M314.968 202.324C310.268 205.824 300.269 204.324 297.369 200.324C294.569 196.824 293.57 183.025 294.07 161.327C294.769 139.129 295.069 111.931 300.069 107.531C305.069 103.232 308.068 107.031 310.068 109.931C312.068 112.931 314.668 116.231 315.068 123.13C315.668 130.129 317.368 166.127 317.368 166.127C317.368 166.127 319.568 198.924 315.068 202.324M324.967 85.3329C311.168 90.0325 301.769 88.5326 293.77 85.0329C290.27 91.3324 288.17 93.2323 285.57 93.6323C281.57 94.0322 278.071 87.6327 277.571 85.6329C276.771 84.133 274.871 81.4332 277.171 75.3337C269.371 68.3342 268.771 58.9349 270.171 52.6354C271.971 45.236 285.17 17.4381 325.167 14.1384C325.167 14.1384 344.766 12.7385 348.165 23.1377H348.765C348.765 23.1377 367.764 23.1377 367.364 40.1364C367.364 57.1351 346.365 78.3334 324.967 85.6329M342.766 36.9366C330.167 38.9365 310.768 55.7352 301.469 69.6341C315.768 72.2339 340.766 71.234 351.965 48.6357C351.965 48.6357 357.265 34.4368 342.766 36.9366ZM287.47 47.9358C283.47 54.4353 283.27 58.335 285.17 60.9348C289.87 53.9353 298.169 42.9361 310.668 34.3368C301.069 35.3367 292.97 39.3364 287.47 47.9358ZM628.144 201.624C618.945 224.222 611.145 247.12 606.646 281.418C606.646 281.418 605.646 288.117 600.146 285.918C594.646 283.918 585.647 274.918 583.647 262.219C581.647 245.621 589.047 217.623 604.146 185.425C599.746 178.426 596.646 168.027 599.146 153.428C599.146 153.428 603.146 126.43 630.144 102.032C630.144 102.032 633.343 99.3318 635.143 100.232C637.343 101.232 636.443 109.831 634.643 114.231C633.044 118.43 621.044 139.229 621.044 139.229C621.044 139.229 613.545 153.428 615.645 164.527C629.844 142.728 662.141 98.5319 682.14 112.531C694.839 121.53 694.839 150.528 685.34 167.327C677.84 180.626 656.642 208.123 628.344 201.724M669.941 133.729C662.541 141.729 649.342 156.927 638.943 177.526C649.942 176.326 660.641 170.226 663.941 167.127C669.241 162.427 681.44 149.728 679.54 132.929C679.54 132.929 678.34 124.13 669.941 133.729ZM221.975 213.423C186.578 224.222 153.18 219.223 134.982 214.423C134.482 221.822 133.682 224.922 132.482 226.122C131.082 227.722 119.483 234.321 113.083 224.922C110.284 220.423 108.884 212.323 108.084 204.924C67.0869 186.325 48.0884 158.927 47.4884 157.927C46.4885 156.927 37.1892 147.228 46.4885 135.229C55.1878 124.43 83.9856 113.531 109.784 109.231C110.784 87.2327 113.183 70.2341 116.283 62.7346C119.983 53.7353 124.682 61.7347 128.882 67.7342C132.282 72.2339 134.382 91.5324 134.582 106.931C151.38 106.131 161.58 107.331 180.278 110.931C204.876 115.131 221.275 127.73 219.975 141.929C218.775 155.927 205.976 161.727 200.977 162.127C195.977 162.527 187.978 158.827 187.978 158.827C182.378 156.227 187.478 153.828 193.977 151.028C201.177 147.528 199.577 144.028 199.577 144.028C196.977 136.029 165.079 130.729 133.382 130.729C133.382 148.228 134.082 177.226 134.582 194.125C156.78 198.324 173.379 197.424 173.379 197.424C173.379 197.424 254.373 195.124 256.672 143.428C259.172 91.6324 175.679 42.0362 114.183 26.4374C52.788 10.3386 17.9907 21.7378 14.9909 23.2377C11.6912 24.8375 14.6909 25.4375 14.6909 25.4375C14.6909 25.4375 17.9907 25.9375 23.9902 27.9373C29.9898 29.9371 25.1901 32.9369 25.1901 32.9369C14.6909 36.5366 2.99184 34.4368 0.692012 29.6372C-1.60781 24.9375 2.1919 20.6379 6.69155 14.3383C10.8912 7.83884 15.6909 8.03883 15.6909 8.03883C91.685 -18.4591 184.478 29.0372 184.478 29.0372C271.271 72.8339 286.07 124.33 284.47 144.328C283.07 164.027 275.471 197.324 221.975 213.523M54.9878 141.929C46.3885 145.928 52.388 152.328 52.388 152.328C68.5868 169.626 88.3853 180.526 107.384 187.325C109.584 157.327 109.384 146.628 109.384 131.529C79.9859 133.529 62.9872 138.329 54.9878 141.929Z" fill="black"/>
</svg>
