<svg width="210" height="71" viewBox="0 0 210 71" fill="none" xmlns="http://www.w3.org/2000/svg">
<path d="M89.3658 36.4107C89.3658 46.2658 81.6529 53.5278 72.1875 53.5278C62.7221 53.5278 55.0092 46.2658 55.0092 36.4107C55.0092 26.4861 62.7221 19.2935 72.1875 19.2935C81.6529 19.2935 89.3658 26.4861 89.3658 36.4107ZM81.846 36.4107C81.846 30.2522 77.3757 26.0385 72.1875 26.0385C66.9993 26.0385 62.529 30.2522 62.529 36.4107C62.529 42.5074 66.9993 46.7828 72.1875 46.7828C77.3757 46.7828 81.846 42.4997 81.846 36.4107Z" fill="#EA4335"/>
<path d="M126.425 36.4107C126.425 46.2658 118.712 53.5278 109.246 53.5278C99.7809 53.5278 92.068 46.2658 92.068 36.4107C92.068 26.4938 99.7809 19.2935 109.246 19.2935C118.712 19.2935 126.425 26.4861 126.425 36.4107ZM118.905 36.4107C118.905 30.2522 114.435 26.0385 109.246 26.0385C104.058 26.0385 99.5879 30.2522 99.5879 36.4107C99.5879 42.5074 104.058 46.7828 109.246 46.7828C114.435 46.7828 118.905 42.4997 118.905 36.4107Z" fill="#FBBC05"/>
<path d="M161.939 20.3276V51.0583C161.939 63.6994 154.481 68.8623 145.664 68.8623C137.365 68.8623 132.369 63.3135 130.486 58.7757L137.033 56.0514C138.199 58.8374 141.055 62.125 145.657 62.125C151.3 62.125 154.798 58.6445 154.798 52.0924V49.6306H154.535C152.852 51.7065 149.61 53.5201 145.518 53.5201C136.956 53.5201 129.111 46.0651 129.111 36.4724C129.111 26.8102 136.956 19.2935 145.518 19.2935C149.602 19.2935 152.844 21.1071 154.535 23.1213H154.798V20.3353H161.939V20.3276ZM155.331 36.4724C155.331 30.4451 151.308 26.0385 146.189 26.0385C141.001 26.0385 136.654 30.4451 136.654 36.4724C136.654 42.4379 141.001 46.7828 146.189 46.7828C151.308 46.7828 155.331 42.4379 155.331 36.4724Z" fill="#4285F4"/>
<path d="M173.713 2.31522V52.4783H166.379V2.31522H173.713Z" fill="#34A853"/>
<path d="M202.295 42.0444L208.132 45.9339C206.248 48.7199 201.708 53.5201 193.864 53.5201C184.136 53.5201 176.871 46.0034 176.871 36.4029C176.871 26.2237 184.198 19.2858 193.022 19.2858C201.909 19.2858 206.256 26.3549 207.676 30.175L208.456 32.1198L185.564 41.5967C187.317 45.031 190.042 46.7828 193.864 46.7828C197.693 46.7828 200.349 44.8998 202.295 42.0444ZM184.329 35.8859L199.631 29.5345C198.79 27.3967 196.257 25.9073 193.277 25.9073C189.456 25.9073 184.136 29.2798 184.329 35.8859Z" fill="#EA4335"/>
<path d="M27.246 31.9577V24.6957H51.7279C51.9673 25.9613 52.0908 27.4585 52.0908 29.0791C52.0908 34.5276 50.6007 41.2649 45.7985 46.0651C41.1276 50.9271 35.1596 53.5201 27.2537 53.5201C12.6 53.5201 0.277939 41.589 0.277939 26.9414C0.277939 12.2938 12.6 0.362732 27.2537 0.362732C35.3603 0.362732 41.1353 3.5423 45.4743 7.68654L40.3478 12.8109C37.2364 9.89371 33.021 7.6248 27.246 7.6248C16.5452 7.6248 8.1761 16.2451 8.1761 26.9414C8.1761 37.6377 16.5452 46.2581 27.246 46.2581C34.1868 46.2581 38.1397 43.4721 40.6721 40.9408C42.7257 38.8879 44.0768 35.9553 44.6096 31.95L27.246 31.9577Z" fill="#4285F4"/>
</svg>
