<svg width="300" height="48" viewBox="0 0 300 48" fill="none" xmlns="http://www.w3.org/2000/svg">
<path d="M134.141 14.5036L140.392 9.83157H119.458V37.8208H140.392V33.1449H125.437V26.0011H138.219V21.3291H125.437V14.5036H134.141Z" fill="#21A038"/>
<path d="M103.641 20.7316H96.3886V14.5036H107.991L114.246 9.83157H90.4089V37.8208H102.869C109.85 37.8208 113.881 34.6117 113.881 29.0239C113.881 23.6651 110.257 20.7316 103.641 20.7316ZM102.644 33.1449H96.3886V25.4035H102.644C106.45 25.4035 108.216 26.6879 108.216 29.2994C108.216 31.9109 106.315 33.1449 102.644 33.1449Z" fill="#21A038"/>
<path d="M157.342 9.83157H145.968V37.8208H151.948V29.8931H157.388C164.637 29.8931 169.169 26.0477 169.169 19.8624C169.169 13.677 164.637 9.83157 157.342 9.83157ZM157.206 25.2212H151.905V14.5036H157.206C161.059 14.5036 163.143 16.4282 163.143 19.8624C163.143 23.2965 161.059 25.2212 157.206 25.2212Z" fill="#21A038"/>
<path d="M80.165 31.7713C78.5818 32.6443 76.8123 33.1022 75.0002 33.1022C69.6064 33.1022 65.7105 29.2063 65.7105 23.8475C65.7105 18.4887 69.6064 14.5928 75.0002 14.5928C76.9481 14.5501 78.8534 15.1904 80.4366 16.3351L84.7438 13.1299L84.4722 12.8544C81.981 10.6077 78.6244 9.46295 74.8178 9.46295C70.6968 9.46295 66.9329 10.8832 64.2166 13.4481C61.4964 16.1062 59.9559 19.8158 60.0452 23.6651C59.9986 27.5572 61.4964 31.3134 64.2166 34.0607C67.0687 36.7653 70.8753 38.2787 74.7751 38.1855C79.0784 38.1855 82.8385 36.6722 85.3763 33.9249L81.527 31.0379L80.165 31.7713Z" fill="#21A038"/>
<path d="M241.088 9.87814V37.8634H247.068V26.4124H259.803V37.8634H265.787V9.87814H259.803V21.3757H247.068V9.87814H241.088ZM230.801 37.8634H237.099L225.407 9.87814H219.335L207.418 37.8634H213.444L215.846 32.2291H228.535L230.801 37.8634ZM217.658 27.5572L222.28 16.3351L226.63 27.5572H217.658ZM279.201 26.5521H282.915L292.068 37.8208H299.771L287.536 23.3431L298.231 9.83157H291.389L282.507 21.8336H279.201V9.83157H273.218V37.8208H279.201V26.5521ZM187.659 20.7781V14.5501H203.293V9.87814H181.676V37.8634H194.139C201.116 37.8634 205.152 34.6583 205.152 29.0705C205.152 23.7117 201.528 20.7781 194.908 20.7781H187.659ZM187.659 33.1915V25.4501H193.914C197.717 25.4501 199.486 26.7345 199.486 29.346C199.486 31.9575 197.628 33.238 193.914 33.238H187.659V33.1915Z" fill="#21A038"/>
<path d="M41.33 9.6492C42.4165 11.0694 43.3245 12.6255 44.0928 14.2746L23.1582 29.8931L14.3652 24.3054V17.6195L23.1116 23.1607L41.33 9.6492Z" fill="#21A038"/>
<path d="M5.43646 23.8475C5.43646 23.5255 5.43646 23.2538 5.48303 22.9318L0.182429 22.6562C0.182429 23.0249 0.135864 23.4362 0.135864 23.801C0.135864 30.2152 2.7202 36.0319 6.88773 40.246L10.6478 36.4432C7.43098 33.238 5.43646 28.795 5.43646 23.8475Z" fill="url(#paint0_linear_3_29)"/>
<path d="M23.1116 5.98225C23.4298 5.98225 23.7014 5.98225 24.0196 6.02881L24.2912 0.670007C23.9264 0.670007 23.519 0.623444 23.1581 0.623444C16.8137 0.623444 11.0591 3.23494 6.8877 7.44903L10.6478 11.2518C13.8219 8.00005 18.2611 5.98225 23.1116 5.98225Z" fill="url(#paint1_linear_3_29)"/>
<path d="M23.1116 41.7128C22.7935 41.7128 22.5218 41.7128 22.2036 41.6662L21.932 47.025C22.2968 47.025 22.7042 47.0716 23.0651 47.0716C29.4095 47.0716 35.168 44.4601 39.3355 40.246L35.5754 36.4432C32.4013 39.7416 28.0048 41.7128 23.1116 41.7128Z" fill="url(#paint2_linear_3_29)"/>
<path d="M33.0803 9.09819L37.566 5.7533C33.6235 2.54811 28.5945 0.576874 23.1116 0.576874V5.93568C26.829 5.98225 30.2709 7.12696 33.0803 9.09819Z" fill="url(#paint3_linear_3_29)"/>
<path d="M46.1339 23.8475C46.1339 22.4273 45.9981 21.0536 45.7692 19.68L40.8294 23.3896C40.8294 23.5255 40.8294 23.7117 40.8294 23.8475C40.8294 29.1171 38.5633 33.8356 34.9856 37.0874L38.5633 41.0725C43.1887 36.8584 46.1339 30.6731 46.1339 23.8475Z" fill="#21A038"/>
<path d="M23.1116 41.7128C17.9003 41.7128 13.2322 39.4234 10.0153 35.803L6.07288 39.4234C10.287 44.1419 16.3598 47.0716 23.1116 47.0716V41.7128Z" fill="url(#paint4_linear_3_29)"/>
<path d="M11.2842 10.6076L7.70261 6.6225C3.03451 10.8832 0.135864 17.0219 0.135864 23.8475H5.43646C5.43646 18.6245 7.70261 13.8633 11.2842 10.6076Z" fill="url(#paint5_linear_3_29)"/>
<defs>
<linearGradient id="paint0_linear_3_29" x1="6.32248" y1="39.5945" x2="0.878545" y2="23.7871" gradientUnits="userSpaceOnUse">
<stop offset="0.1444" stop-color="#F2E913"/>
<stop offset="0.3037" stop-color="#E7E518"/>
<stop offset="0.5823" stop-color="#CADB26"/>
<stop offset="0.891" stop-color="#A3CD39"/>
</linearGradient>
<linearGradient id="paint1_linear_3_29" x1="8.39961" y1="6.84409" x2="22.1545" y2="1.57857" gradientUnits="userSpaceOnUse">
<stop offset="0.0592" stop-color="#0FA8E0"/>
<stop offset="0.5385" stop-color="#0099F9"/>
<stop offset="0.9234" stop-color="#0291EB"/>
</linearGradient>
<linearGradient id="paint2_linear_3_29" x1="21.6223" y1="42.5138" x2="38.0122" y2="38.7929" gradientUnits="userSpaceOnUse">
<stop offset="0.1226" stop-color="#A3CD39"/>
<stop offset="0.2846" stop-color="#86C339"/>
<stop offset="0.8693" stop-color="#21A038"/>
</linearGradient>
<linearGradient id="paint3_linear_3_29" x1="22.0224" y1="3.99137" x2="35.6527" y2="8.21603" gradientUnits="userSpaceOnUse">
<stop offset="0.0566" stop-color="#0291EB"/>
<stop offset="0.79" stop-color="#0C8ACB"/>
</linearGradient>
<linearGradient id="paint4_linear_3_29" x1="7.42074" y1="40.2711" x2="22.0645" y2="45.7675" gradientUnits="userSpaceOnUse">
<stop offset="0.1324" stop-color="#F2E913"/>
<stop offset="0.2977" stop-color="#EBE716"/>
<stop offset="0.5306" stop-color="#D9E01F"/>
<stop offset="0.8023" stop-color="#BBD62D"/>
<stop offset="0.9829" stop-color="#A3CD39"/>
</linearGradient>
<linearGradient id="paint5_linear_3_29" x1="4.19859" y1="24.495" x2="10.0832" y2="9.11764" gradientUnits="userSpaceOnUse">
<stop offset="0.0698" stop-color="#A3CD39"/>
<stop offset="0.2599" stop-color="#81C55F"/>
<stop offset="0.9216" stop-color="#0FA8E0"/>
</linearGradient>
</defs>
</svg>
