<svg width="140" height="28" viewBox="0 0 140 28" fill="none" xmlns="http://www.w3.org/2000/svg">
<g clip-path="url(#clip0_3_66)">
<path d="M110.222 23.3085L110.473 27.4011C109.821 27.7505 108.063 27.9002 107.209 27.9002C102.791 27.9002 99.627 25.1551 99.5265 20.3139H104.197C104.397 22.3602 106.004 23.6079 107.912 23.6079C108.364 23.558 109.821 23.4083 110.222 23.3085ZM46.8508 27.6007H51.5208V1.79724H46.8508V27.6007ZM87.8766 11.2801C90.0861 11.2801 91.944 12.3782 92.7977 13.9753L96.7145 11.7792C95.208 8.78464 91.8436 6.83815 87.8766 6.83815C81.8006 6.83815 77.1808 11.4299 77.1808 17.469C77.1808 23.5081 81.8508 28 87.9268 28C91.693 28 94.9067 26.3031 96.7145 23.6079L92.7977 21.2122C91.7934 22.6596 89.9857 23.558 87.9268 23.558C84.4118 23.558 81.8006 20.9128 81.8006 17.4191C81.8006 13.9254 84.3615 11.2801 87.8766 11.2801ZM44.1894 16.5207C44.1894 11.0805 39.8709 6.83815 34.3472 6.83815C28.4218 6.83815 23.802 11.4299 23.802 17.3193C23.802 23.4083 28.5222 28 34.4476 28C38.6657 28 42.1306 26.353 43.637 23.6079L39.9211 21.2122C38.967 22.8094 36.858 23.8076 34.5481 23.8076C31.2339 23.8076 28.9742 21.8112 28.472 18.5171H44.0387C44.1392 17.8683 44.1894 17.0697 44.1894 16.5207ZM28.6227 14.9735C29.3257 12.3283 31.2841 10.6313 34.0961 10.6313C36.9082 10.6313 39.0172 12.4281 39.2683 14.9735H28.6227ZM74.5696 16.5207C74.5696 11.0805 70.2511 6.83815 64.7274 6.83815C58.802 6.83815 54.1822 11.4299 54.1822 17.3193C54.1822 23.4083 58.9024 28 64.8278 28C69.0459 28 72.5108 26.353 74.0172 23.6079L70.3013 21.2122C69.3472 22.8094 67.2382 23.8076 64.9283 23.8076C61.6141 23.8076 59.3544 21.8112 58.8522 18.5171H74.4189C74.5194 17.8683 74.5696 17.0697 74.5696 16.5207ZM58.9527 14.9735C59.6557 12.3283 61.6141 10.6313 64.4261 10.6313C67.2382 10.6313 69.3472 12.4281 69.5983 14.9735H58.9527ZM132.669 16.5207C132.669 11.0805 128.35 6.83815 122.826 6.83815C116.901 6.83815 112.281 11.4299 112.281 17.3193C112.281 23.4083 117.001 28 122.927 28C127.145 28 130.61 26.353 132.116 23.6079L128.4 21.2122C127.446 22.8094 125.337 23.8076 123.027 23.8076C119.713 23.8076 117.453 21.8112 116.951 18.5171H132.518C132.618 17.8683 132.669 17.0697 132.669 16.5207ZM117.102 14.9735C117.805 12.3283 119.763 10.6313 122.575 10.6313C125.387 10.6313 127.496 12.4281 127.747 14.9735H117.102ZM135.33 27.6007H140V1.79724H135.33V27.6007ZM15.4663 22.8094C14.3615 23.5081 13.0057 23.8575 11.4491 23.8575C9.79197 23.8575 8.33572 23.4083 7.08034 22.5099C5.82496 21.6115 5.02152 20.4137 4.6198 18.8166L0 19.5153C0.251076 21.2122 0.903874 22.7095 1.90818 24.0072C2.91248 25.3049 4.21808 26.2532 5.82496 26.9519C7.43185 27.6506 9.18938 28 11.1478 28C13.056 28 14.8135 27.7005 16.4204 27.0517C18.0273 26.4029 19.2826 25.4546 20.2869 24.2068C21.1406 23.1088 21.5925 21.8112 21.693 20.3139H17.0732C16.9727 21.3121 16.4706 22.1605 15.4663 22.8094Z" fill="#092433"/>
<path d="M104.147 18.5166H99.4765V11.629V7.23695V1.79676H104.147V7.23695H110.273V11.629H104.147V18.5166ZM20.5884 15.6717C19.8352 14.6735 18.9313 13.9748 17.927 13.4757C16.9227 13.0265 15.7677 12.6272 14.5124 12.2779L9.6917 10.8804C8.48654 10.5809 7.53245 10.1816 6.77922 9.73245C6.07621 9.28326 5.67449 8.58452 5.67449 7.63623C5.67449 6.93749 5.92556 6.33857 6.3775 5.78956C6.82944 5.24055 7.48224 4.84127 8.28568 4.54181C9.08912 4.24235 9.94278 4.14253 10.7964 4.14253C12.2527 4.19244 13.5081 4.59172 14.6128 5.39028C15.7175 6.18884 16.4205 7.28686 16.7218 8.63443L21.4923 7.83587C21.0906 6.18884 20.3875 4.74145 19.4335 3.59352C18.4794 2.44559 17.2742 1.54721 15.7677 0.94829C14.3115 0.34937 12.6544 0 10.8467 0C9.03891 0.04991 7.38181 0.29946 5.87535 0.94829C4.36889 1.54721 3.21394 2.44559 2.36028 3.64343C1.50662 4.79136 1.05469 6.23875 1.05469 7.88578C1.05469 9.93209 1.60706 11.4793 2.76201 12.4775C3.91695 13.4757 5.32298 14.2244 7.0303 14.6735L14.0604 16.7698C15.1149 17.0692 15.8682 17.5184 16.3703 18.0175C16.521 18.1672 16.6214 18.317 16.7218 18.5166H21.6429C21.5425 17.3687 21.1408 16.4204 20.5884 15.6717Z" fill="#EB4247"/>
</g>
<defs>
<clipPath id="clip0_3_66">
<rect width="140" height="28" fill="white"/>
</clipPath>
</defs>
</svg>
