<svg width="431" height="133" viewBox="0 0 431 133" fill="none" xmlns="http://www.w3.org/2000/svg">
<path d="M214.63 56.5527C211.66 55.4102 207.776 55.0676 203.549 55.0676H180.014V47.7558H220.457V35.1888H163.448V89.5702H202.064C207.433 89.5702 211.431 89.1133 214.402 87.9702C220.686 85.5709 224.913 79.7446 224.913 72.0902C224.913 64.322 220.914 58.952 214.63 56.5527ZM206.405 75.4033C205.491 75.7464 204.234 75.8602 202.634 75.8602H180.014V67.1777H202.634C204.463 67.1777 205.947 67.2926 207.09 67.8633C208.461 68.5489 209.147 69.8057 209.147 71.4046C209.147 73.0039 208.347 74.7177 206.405 75.4033Z" fill="#333333"/>
<path d="M271.361 35.1888H247.141L224.863 89.5702H243.6L246.684 81.687H271.818L275.017 89.5702H293.64L271.361 35.1888ZM250.797 69.6908L258.68 47.7558H259.937L267.82 69.6908H250.797Z" fill="#333333"/>
<path d="M314.962 69.3488V89.57H298.397V35.1886H314.962V55.0676H341.582V35.1886H358.148V89.57H341.582V69.3488H314.962Z" fill="#333333"/>
<path d="M384.369 69.0059V89.57H367.803V35.1886H384.369V55.6388H388.939L408.932 35.1886H429.725L403.22 61.2368L430.753 89.57H408.703L388.939 69.0059H384.369Z" fill="#333333"/>
<path d="M0.304932 0.229858H132.373V66.6503C132.373 83.6776 123.289 99.4119 108.544 107.926L66.3388 132.297L24.1338 107.926C9.38832 99.4119 0.304932 83.6776 0.304932 66.6503V0.229858Z" fill="#FFDD2D"/>
<path fill-rule="evenodd" clip-rule="evenodd" d="M36.5502 35.1886V55.8468C39.3751 52.6568 44.5113 50.4978 50.3839 50.4978H56.7657V74.5127C56.7657 80.9017 55.0298 86.494 52.4541 89.57H80.2138C77.6435 86.4909 75.9115 80.9057 75.9115 74.5249V50.4978H82.2937C88.1662 50.4978 93.3023 52.6568 96.1273 55.8468V35.1886H36.5502Z" fill="#333333"/>
</svg>
