<svg width="800" height="182" viewBox="0 0 800 182" fill="none" xmlns="http://www.w3.org/2000/svg">
<path d="M399.095 45.2745C367.855 45.2745 345.331 65.648 345.331 96.2083C345.331 126.769 370.685 147.142 401.924 147.142C420.798 147.142 437.436 139.672 447.736 127.08L426.089 114.573C420.374 120.826 411.686 124.477 401.924 124.477C388.37 124.477 376.853 117.402 372.581 106.084H451.868C452.49 102.915 452.858 99.6321 452.858 96.18C452.858 65.648 430.334 45.2745 399.095 45.2745ZM372.326 86.3045C375.863 75.0141 385.54 67.9117 399.066 67.9117C412.62 67.9117 422.298 75.0141 425.806 86.3045H372.326ZM703.792 45.2745C672.552 45.2745 650.028 65.648 650.028 96.2083C650.028 126.769 675.382 147.142 706.621 147.142C725.495 147.142 742.134 139.672 752.433 127.08L730.787 114.573C725.071 120.826 716.384 124.477 706.621 124.477C693.067 124.477 681.551 117.402 677.278 106.084H756.565C757.187 102.915 757.555 99.6321 757.555 96.18C757.555 65.648 735.031 45.2745 703.792 45.2745ZM677.051 86.3045C680.589 75.0141 690.266 67.9117 703.792 67.9117C717.346 67.9117 727.023 75.0141 730.532 86.3045H677.051ZM566.61 96.2083C566.61 113.186 577.702 124.505 594.907 124.505C606.565 124.505 615.308 119.213 619.808 110.583L641.539 123.118C632.541 138.115 615.676 147.142 594.907 147.142C563.639 147.142 541.143 126.769 541.143 96.2083C541.143 65.648 563.667 45.2745 594.907 45.2745C615.676 45.2745 632.513 54.3011 641.539 69.2982L619.808 81.8336C615.308 73.2032 606.565 67.9117 594.907 67.9117C577.731 67.9117 566.61 79.2303 566.61 96.2083ZM800 14.1483V144.312H774.533V14.1483H800ZM104.556 0L209.111 181.098H0L104.556 0ZM365.959 14.1483L287.55 149.972L209.14 14.1483H238.54L287.55 99.0379L336.559 14.1483H365.959ZM532.654 48.1041V75.5235C529.825 74.7029 526.825 74.137 523.599 74.137C507.159 74.137 495.303 85.4556 495.303 102.434V144.312H469.836V48.1041H495.303V74.137C495.303 59.7623 512.026 48.1041 532.654 48.1041Z" fill="black"/>
</svg>
