<svg width="1349" height="411" viewBox="0 0 1349 411" fill="none" xmlns="http://www.w3.org/2000/svg">
<path d="M330.633 349.423L291.654 284.635L253.482 349.423H207.779L266.494 251.84L206.657 161.244H254.397L292.73 221.731L329.29 161.244H374.989L316.118 254.796L376.602 349.423H330.633Z" fill="#100F0D"/>
<path d="M525.149 285.443C525.149 326.841 493.966 352.648 453.103 352.648C417.081 352.648 386.751 332.756 383.795 289.474H422.774C425.462 308.292 440.517 316.357 456.917 316.357C477.346 316.357 486.17 302.647 486.17 284.904C486.17 266.355 472.461 254.796 453.373 254.796C437.513 254.796 427.029 262.323 422.19 270.388H384.93L397.811 161.244H520.359L516.278 197.805H428.617L425.137 233.924C425.137 233.924 434.347 223.075 462.245 223.075C495.849 223.075 525.149 245.656 525.149 285.443Z" fill="#100F0D"/>
<path d="M388.413 137.808C367.652 56.8668 301.765 0.000134701 165.057 0.000134701H0L22.4063 151.505C39.2615 288.215 91.5479 332.197 184.075 348.39C184.511 348.457 187.43 348.873 187.474 345.443C187.489 344.209 186.703 343.144 185.634 342.692C123.092 316.356 115.954 230.005 102.597 143.344L92.2563 74.2882H186.482C273.357 74.2882 340.418 72.9161 382.891 139.968C383.527 140.916 384.506 141.611 385.67 141.611C387.314 141.611 388.529 140.277 388.529 138.633C388.529 138.347 388.488 138.071 388.413 137.808Z" fill="#55B435"/>
<path d="M557.843 255.191C557.843 196.733 600.285 154.559 659.275 154.559C698.781 154.559 734.549 177.515 744.959 209.012L722.805 216.487C714.797 192.996 688.371 175.913 659.275 175.913C614.165 175.913 582.134 208.745 582.134 255.191C582.134 301.103 614.431 334.735 659.275 334.735C699.849 334.735 731.879 305.64 732.947 267.736L639.523 267.469V245.848H757.505C761.509 309.911 720.402 356.09 659.275 356.09C600.285 356.09 557.843 313.648 557.843 255.191Z" fill="#100F0D"/>
<path d="M786.709 214.619H808.33V232.769H810.733C816.873 220.491 831.819 211.949 846.767 211.949C852.907 211.949 859.314 213.284 863.318 215.419V235.972C856.377 233.036 848.37 231.968 843.298 231.968C823.011 231.968 808.865 250.119 808.865 276.812V349.416H786.709V214.619Z" fill="#100F0D"/>
<path d="M998.305 281.884C998.305 251.453 977.217 229.299 948.122 229.299C918.761 229.299 897.939 251.453 897.939 281.884C897.939 312.58 918.761 334.735 948.122 334.735C977.217 334.735 998.305 312.58 998.305 281.884ZM875.785 281.884C875.785 239.443 905.681 209.28 948.122 209.28C990.297 209.28 1020.46 239.443 1020.46 281.884C1020.46 324.592 990.297 354.755 948.122 354.755C905.681 354.755 875.785 324.592 875.785 281.884Z" fill="#100F0D"/>
<path d="M1169.46 349.416H1147.31V330.999H1144.64C1135.29 345.679 1120.08 354.221 1102.46 354.221C1068.03 354.221 1046.41 329.397 1046.41 294.963V214.619H1068.56V294.963C1068.56 317.919 1081.91 334.202 1105.13 334.202C1127.82 334.202 1147.31 316.851 1147.31 293.095V214.619H1169.46V349.416Z" fill="#100F0D"/>
<path d="M1226.37 281.884C1226.37 311.512 1247.46 334.735 1276.55 334.735C1305.38 334.735 1326.47 311.512 1326.47 281.884C1326.47 251.721 1305.38 229.299 1276.55 229.299C1247.46 229.299 1226.37 252.255 1226.37 281.884ZM1348.63 281.884C1348.63 324.059 1318.46 354.755 1279.22 354.755C1257.6 354.755 1239.45 345.412 1229.58 329.397H1227.17V410.809H1205.02V214.619H1227.17V235.172H1229.58C1239.45 218.889 1256.8 209.28 1278.96 209.28C1318.2 209.28 1348.63 239.709 1348.63 281.884Z" fill="#100F0D"/>
</svg>
