<svg width="367" height="106" viewBox="0 0 367 106" fill="none" xmlns="http://www.w3.org/2000/svg">
<g clip-path="url(#clip0_3_24)">
<path d="M349.9 92.3C357.1 92.3 362.2 91 366 88.2V75.5C362.1 78.2 357.4 79.9 350.8 79.9C339.7 79.9 335.1 71.3 335.1 57.7C335.1 43.4 340.7 36.1 350.9 36.1C356.9 36.1 362.8 38.2 365.9 40.2V27C362.6 25.2 356.9 23.9 349.1 23.9C329.2 23.9 318.9 38.2 318.9 58.2C319 80.1 329.1 92.3 349.9 92.3ZM252.6 86.5V73.8C247.8 77.1 239.6 80 232.1 80C220.7 80 216.4 74.6 215.7 63.6H253.3V55.4C253.3 32.5 243.2 23.9 227.7 23.9C208.7 23.9 199.7 38.4 199.7 58.3C199.7 81.2 211 92.3 230.8 92.3C240.7 92.3 248 89.6 252.6 86.5ZM109.9 25.1V51.1H89.1V25.1H73.5V91H89.1V63.5H109.9V91H125.5V25.1H109.9ZM195.8 78.6H188.9V25.1H143.5V30.7C143.5 46.8 142.5 67.6 137 78.6H132V106H146.4V91H181.3V106H195.7V78.6H195.8ZM302.3 91H320L295 55.5L317 25.1H301.3L279.3 55.5V25.1H263.7V91H279.3V58.6L302.3 91ZM227.3 36.1C235 36.1 237.4 42.5 237.4 50.8V52.1H215.7C216.1 41.6 219.9 36.1 227.3 36.1ZM173.3 78.6H151.3C155.6 68.7 156.8 50.7 156.8 39.3V37.3H173.3V78.6Z" fill="black"/>
<path d="M60.5 91H44.6V12.3H37.5C24.5 12.3 17.7 18.8 17.7 28.5C17.7 39.5 22.4 44.6 32.1 51.1L40.1 56.5L17.1 91H0L20.7 60.2C8.8 51.7 2.1 43.4 2.1 29.4C2.1 11.9 14.3 0 37.4 0H60.4V91H60.5Z" fill="#FC3F1D"/>
</g>
<defs>
<clipPath id="clip0_3_24">
<rect width="367" height="106" fill="white"/>
</clipPath>
</defs>
</svg>
